<mxfile host="app.diagrams.net" agent="Mozilla/5.0 (X11; Linux x86_64; rv:128.0) Gecko/20100101 Firefox/128.0" version="28.1.1">
  <diagram name="PÃ¡gina-1" id="HX1LGXIe6HeCdR1Ap2Iu">
    <mxGraphModel dx="908" dy="1165" grid="1" gridSize="10" guides="1" tooltips="1" connect="1" arrows="1" fold="1" page="1" pageScale="1" pageWidth="827" pageHeight="1169" math="0" shadow="0">
      <root>
        <mxCell id="0" />
        <mxCell id="1" parent="0" />
        <mxCell id="32KYeuIivKd3fG_7Apso-1" value="" style="rounded=1;whiteSpace=wrap;html=1;" vertex="1" parent="1">
          <mxGeometry x="100" y="110" width="270" height="490" as="geometry" />
        </mxCell>
        <mxCell id="32KYeuIivKd3fG_7Apso-3" value="" style="ellipse;whiteSpace=wrap;html=1;aspect=fixed;" vertex="1" parent="1">
          <mxGeometry x="315" y="545" width="40" height="40" as="geometry" />
        </mxCell>
        <mxCell id="32KYeuIivKd3fG_7Apso-12" style="edgeStyle=none;curved=1;rounded=0;orthogonalLoop=1;jettySize=auto;html=1;exitX=0.5;exitY=1;exitDx=0;exitDy=0;entryX=0.5;entryY=0;entryDx=0;entryDy=0;fontSize=12;startSize=8;endSize=8;" edge="1" parent="1" source="32KYeuIivKd3fG_7Apso-5" target="32KYeuIivKd3fG_7Apso-3">
          <mxGeometry relative="1" as="geometry" />
        </mxCell>
        <mxCell id="32KYeuIivKd3fG_7Apso-20" style="edgeStyle=none;curved=1;rounded=0;orthogonalLoop=1;jettySize=auto;html=1;exitX=1;exitY=0.5;exitDx=0;exitDy=0;fontSize=12;startSize=8;endSize=8;" edge="1" parent="1" source="32KYeuIivKd3fG_7Apso-9">
          <mxGeometry relative="1" as="geometry">
            <mxPoint x="570" y="410" as="targetPoint" />
          </mxGeometry>
        </mxCell>
        <mxCell id="32KYeuIivKd3fG_7Apso-26" style="edgeStyle=none;curved=1;rounded=0;orthogonalLoop=1;jettySize=auto;html=1;exitX=1;exitY=1;exitDx=0;exitDy=0;fontSize=12;startSize=8;endSize=8;" edge="1" parent="1" source="32KYeuIivKd3fG_7Apso-5" target="32KYeuIivKd3fG_7Apso-27">
          <mxGeometry relative="1" as="geometry">
            <mxPoint x="500" y="900" as="targetPoint" />
          </mxGeometry>
        </mxCell>
        <mxCell id="32KYeuIivKd3fG_7Apso-5" value="" style="ellipse;whiteSpace=wrap;html=1;aspect=fixed;" vertex="1" parent="1">
          <mxGeometry x="320" y="500" width="30" height="30" as="geometry" />
        </mxCell>
        <mxCell id="32KYeuIivKd3fG_7Apso-24" value="" style="edgeStyle=none;curved=1;rounded=0;orthogonalLoop=1;jettySize=auto;html=1;fontSize=12;startSize=8;endSize=8;" edge="1" parent="1" source="32KYeuIivKd3fG_7Apso-7" target="32KYeuIivKd3fG_7Apso-15">
          <mxGeometry relative="1" as="geometry" />
        </mxCell>
        <mxCell id="32KYeuIivKd3fG_7Apso-7" value="" style="rounded=1;whiteSpace=wrap;html=1;" vertex="1" parent="1">
          <mxGeometry x="140" y="160" width="100" height="140" as="geometry" />
        </mxCell>
        <mxCell id="32KYeuIivKd3fG_7Apso-11" style="edgeStyle=none;curved=1;rounded=0;orthogonalLoop=1;jettySize=auto;html=1;exitX=0.5;exitY=1;exitDx=0;exitDy=0;fontSize=12;startSize=8;endSize=8;" edge="1" parent="1" source="32KYeuIivKd3fG_7Apso-9" target="32KYeuIivKd3fG_7Apso-5">
          <mxGeometry relative="1" as="geometry" />
        </mxCell>
        <mxCell id="32KYeuIivKd3fG_7Apso-9" value="" style="ellipse;whiteSpace=wrap;html=1;aspect=fixed;" vertex="1" parent="1">
          <mxGeometry x="320" y="450" width="30" height="30" as="geometry" />
        </mxCell>
        <mxCell id="32KYeuIivKd3fG_7Apso-14" value="" style="rounded=1;whiteSpace=wrap;html=1;" vertex="1" parent="1">
          <mxGeometry x="250" y="190" width="100" height="140" as="geometry" />
        </mxCell>
        <mxCell id="32KYeuIivKd3fG_7Apso-15" value="" style="rounded=1;whiteSpace=wrap;html=1;" vertex="1" parent="1">
          <mxGeometry x="150" y="330" width="100" height="140" as="geometry" />
        </mxCell>
        <mxCell id="32KYeuIivKd3fG_7Apso-16" value="&lt;div&gt;Lista de archivo&lt;/div&gt;&lt;div&gt;&lt;br&gt;&lt;/div&gt;" style="text;strokeColor=none;align=center;fillColor=none;html=1;verticalAlign=middle;whiteSpace=wrap;rounded=0;fontSize=16;" vertex="1" parent="1">
          <mxGeometry x="190" y="660" width="60" height="30" as="geometry" />
        </mxCell>
        <mxCell id="32KYeuIivKd3fG_7Apso-17" value="" style="rounded=1;whiteSpace=wrap;html=1;" vertex="1" parent="1">
          <mxGeometry x="140" y="560" width="80" height="10" as="geometry" />
        </mxCell>
        <mxCell id="32KYeuIivKd3fG_7Apso-18" style="edgeStyle=none;curved=1;rounded=0;orthogonalLoop=1;jettySize=auto;html=1;exitX=0.5;exitY=0;exitDx=0;exitDy=0;entryX=0.413;entryY=0.8;entryDx=0;entryDy=0;entryPerimeter=0;fontSize=12;startSize=8;endSize=8;" edge="1" parent="1" source="32KYeuIivKd3fG_7Apso-16" target="32KYeuIivKd3fG_7Apso-17">
          <mxGeometry relative="1" as="geometry" />
        </mxCell>
        <mxCell id="32KYeuIivKd3fG_7Apso-19" style="edgeStyle=none;curved=1;rounded=0;orthogonalLoop=1;jettySize=auto;html=1;exitX=0.5;exitY=1;exitDx=0;exitDy=0;entryX=0.889;entryY=1;entryDx=0;entryDy=0;entryPerimeter=0;fontSize=12;startSize=8;endSize=8;" edge="1" parent="1" source="32KYeuIivKd3fG_7Apso-16" target="32KYeuIivKd3fG_7Apso-1">
          <mxGeometry relative="1" as="geometry" />
        </mxCell>
        <mxCell id="32KYeuIivKd3fG_7Apso-21" value="" style="rounded=1;whiteSpace=wrap;html=1;" vertex="1" parent="1">
          <mxGeometry x="570" y="130" width="270" height="490" as="geometry" />
        </mxCell>
        <mxCell id="32KYeuIivKd3fG_7Apso-22" value="" style="rounded=1;whiteSpace=wrap;html=1;" vertex="1" parent="1">
          <mxGeometry x="640" y="220" width="120" height="60" as="geometry" />
        </mxCell>
        <mxCell id="32KYeuIivKd3fG_7Apso-23" value="Add contact " style="text;strokeColor=none;fillColor=none;html=1;align=center;verticalAlign=middle;whiteSpace=wrap;rounded=0;fontSize=16;" vertex="1" parent="1">
          <mxGeometry x="660" y="330" width="60" height="30" as="geometry" />
        </mxCell>
        <mxCell id="32KYeuIivKd3fG_7Apso-25" style="edgeStyle=none;curved=1;rounded=0;orthogonalLoop=1;jettySize=auto;html=1;exitX=0.25;exitY=1;exitDx=0;exitDy=0;entryX=1.043;entryY=0.074;entryDx=0;entryDy=0;entryPerimeter=0;fontSize=12;startSize=8;endSize=8;" edge="1" parent="1" source="32KYeuIivKd3fG_7Apso-14" target="32KYeuIivKd3fG_7Apso-15">
          <mxGeometry relative="1" as="geometry" />
        </mxCell>
        <mxCell id="32KYeuIivKd3fG_7Apso-27" value="" style="rounded=1;whiteSpace=wrap;html=1;" vertex="1" parent="1">
          <mxGeometry x="400" y="670" width="300" height="490" as="geometry" />
        </mxCell>
        <mxCell id="32KYeuIivKd3fG_7Apso-28" value="" style="endArrow=none;html=1;rounded=0;fontSize=12;startSize=8;endSize=8;curved=1;exitX=0;exitY=0.25;exitDx=0;exitDy=0;entryX=1;entryY=0.25;entryDx=0;entryDy=0;" edge="1" parent="1" source="32KYeuIivKd3fG_7Apso-27" target="32KYeuIivKd3fG_7Apso-27">
          <mxGeometry width="50" height="50" relative="1" as="geometry">
            <mxPoint x="590" y="950" as="sourcePoint" />
            <mxPoint x="640" y="900" as="targetPoint" />
          </mxGeometry>
        </mxCell>
        <mxCell id="32KYeuIivKd3fG_7Apso-29" value="&lt;div&gt;Titulo&lt;/div&gt;" style="text;strokeColor=none;fillColor=none;html=1;align=center;verticalAlign=middle;whiteSpace=wrap;rounded=0;fontSize=16;" vertex="1" parent="1">
          <mxGeometry x="510" y="710" width="60" height="30" as="geometry" />
        </mxCell>
        <mxCell id="32KYeuIivKd3fG_7Apso-31" value="&lt;div&gt;notas&lt;/div&gt;&lt;div&gt;&lt;br&gt;&lt;/div&gt;&lt;div&gt;&lt;br&gt;&lt;/div&gt;" style="text;strokeColor=none;fillColor=none;html=1;align=center;verticalAlign=middle;whiteSpace=wrap;rounded=0;fontSize=16;" vertex="1" parent="1">
          <mxGeometry x="500" y="850" width="60" height="30" as="geometry" />
        </mxCell>
      </root>
    </mxGraphModel>
  </diagram>
</mxfile>
